Coordinates
version=1
nRows=6
nColumns=36
inDegrees=yes

Units are S.I. units (second, meters, Newtons, ...)
If the header above contains a line with 'inDegrees', this indicates whether rotational values are in degrees (yes) or radians (no).

endheader
time	pelvis_tilt	pelvis_list	pelvis_rotation	pelvis_tx	pelvis_ty	pelvis_tz	hip_flexion_r	hip_adduction_r	hip_rotation_r	knee_angle_r	knee_angle_r_beta	ankle_angle_r	subtalar_angle_r	mtp_angle_r	hip_flexion_l	hip_adduction_l	hip_rotation_l	knee_angle_l	knee_angle_l_beta	ankle_angle_l	subtalar_angle_l	mtp_angle_l	lumbar_extension	lumbar_bending	lumbar_rotation	arm_flex_r	arm_add_r	arm_rot_r	elbow_flex_r	pro_sup_r	arm_flex_l	arm_add_l	arm_rot_l	elbow_flex_l	pro_sup_l
      2.45833330	    -14.16910859	     -0.78655557	      3.93037817	     -0.17700826	      1.22302503	     -0.05082615	     36.90658603	    -10.29802223	    -10.20285778	     41.60461231	      0.72613747	    -14.16437315	    -28.67587352	     -7.49999987	     33.91498230	     -5.57902082	     -7.38596912	     13.16805973	      0.22982600	    -24.62097753	     -2.30477789	     -7.49999987	    -15.83314454	      1.38294754	      1.91802337	     31.87272999	    -19.62632004	     13.76586176	     69.07154481	     84.49937313	     28.29643635	    -33.71291860	      3.84412493	    113.84855129	     71.17346350
      2.46250000	    -14.03394053	     -1.25671808	      4.03042209	     -0.17595996	      1.21841089	     -0.05114742	     37.75144925	    -10.04369068	     -9.93124548	     41.35854238	      0.72184274	    -14.72259666	    -28.92378738	     -7.49999987	     34.89709386	     -6.17129502	     -8.61978418	     13.68361618	      0.23882416	    -24.30580121	     -2.99091994	     -7.49999987	    -16.22704392	      1.77194427	      2.05131988	     31.97524377	    -19.90223968	     13.99306155	     68.63828082	     84.80926309	     28.48507465	    -33.76848850	      4.10745432	    114.06698460	     71.34369542
      2.46666670	    -13.86091177	     -1.66703642	      3.75569130	     -0.16571274	      1.20748486	     -0.05193458	     37.85855305	     -9.33802152	     -9.28566301	     40.03197591	      0.69868979	    -14.93694016	    -27.46653138	     -7.49999987	     35.19281521	     -6.73370154	     -8.89407761	     13.54161747	      0.23634581	    -24.20949754	     -2.89179682	     -7.49999987	    -16.04096192	      2.18632919	      2.35745615	     31.78037705	    -20.15854412	     14.06214330	     68.34838841	     84.74454639	     28.24456195	    -33.84758504	      4.05194754	    113.81649122	     71.32138142
      2.47083330	    -13.60867162	     -1.74759566	      3.44511863	     -0.16045593	      1.20368738	     -0.05661295	     37.88909036	     -9.05023844	     -8.59249302	     38.84756173	      0.67801786	    -14.99625648	    -25.56352962	     -7.49999987	     35.62715075	     -6.94784170	     -8.57701108	     14.20060925	      0.24784739	    -23.97454389	     -3.44420058	     -7.49999987	    -16.23795135	      2.58564540	      2.72289547	     31.57396743	    -20.35910899	     14.12957445	     68.38859002	     84.62763207	     27.83228015	    -33.41472845	      3.60367024	    113.39765692	     71.25492306
      2.47500000	    -13.29759904	     -1.71470794	      3.35618478	     -0.15542704	      1.19779663	     -0.06047143	     37.44819854	     -9.34364913	     -8.51054360	     37.53131881	      0.65504509	    -15.98512487	    -24.37664616	     -7.49999987	     35.79222113	     -6.60921220	     -7.21822075	     14.01983400	      0.24469226	    -24.58316965	     -4.35982811	     -7.49999987	    -16.52691268	      2.95513736	      2.78806123	     31.20898071	    -20.53790834	     13.92925616	     69.21082640	     85.09301439	     27.21600193	    -32.75354153	      2.27720002	    113.14701186	     71.43311480
      2.47916670	    -13.28809208	     -1.17878110	      3.08681838	     -0.14616847	      1.18842047	     -0.06860836	     37.51255583	    -10.27257890	     -7.96315640	     36.77360468	      0.64182048	    -17.09587918	    -24.35103582	     -7.49999987	     35.61299910	     -5.64946712	     -6.38801405	     13.22328064	      0.23078979	    -25.04873755	     -5.55301391	     -7.49999987	    -16.34153293	      2.99707063	      2.72194940	     30.83714247	    -20.87498204	     14.02416990	     70.25486976	     85.68053138	     26.04505602	    -32.19975064	      1.11168043	    112.67539555	     71.64597935
